<svg xmlns="http://www.w3.org/2000/svg" width="694.352783203125" height="705.2142333984375"><style>


/*to make the svg resizable*/ /*
.svg-container {
    display: inline-block;
    position: relative;
    width: 100%;
    /*padding-bottom: 100%; /* aspect ratio */ /*
    vertical-align: top;
    /*overflow: hidden;*/ /*
}

.svg-content-responsive {
    display: inline-block;
    position: absolute;
    top: 10px;
    left: 0;
} */ /*

svg {
  border: 1px solid #999;
  /*overflow: hidden;*/ /*
} */

.canvas {
  overflow: visible;
}
.canvas .wrapper.outer &gt; .background {
  fill: #FFFFFF;
}
.canvas .wrapper.inner &gt; .background {
  fill: #FFFFFF;
  cursor: move;
}
.canvas .background {
  fill: #FFFFFF;
  stroke: #333333;
  cursor: move;
}
.canvas .panCanvas {
  cursor: click;
}

.canvas .minimap {
  stroke: #000000; /* #111111 */
  stroke-width: 1px;
}

.canvas .minimap .frame {
  pointer-events: all;
}

.canvas .minimap .container {
  stroke: #000000; /* #111111 */
  /*stroke-width: 1px;*/
  /*border: 1px solid #999;*/
}

.canvas .minimap .frame .background {
  stroke: #FF0000; /* #111111 */
  stroke-width: 10px;
  fill-opacity: 0.1;   /*grey shade of mini-map*/
  fill: #FFFFFF; /* #FF0000 */
  /*fill: url(#minimapGradient_qwpyza); */
  filter: url(#minimapDropShadow_qwpyza);
  cursor: move;
  border: 1px solid #999;
}

/*
.cluster rect {
  stroke: #333;
  fill: #000;
  fill-opacity: 0.1;
  stroke-width: 1.5px;
}*/

h1, h2 {
  color: #333;
}

/*textarea {
  width: 800px;
}*/

text {
  font-family: sans-serif;
  font-size: 14px;
  /* no effect:
  text-align: center;
  word-wrap: break-word;
  width: 50px;
  max-width: 60px;
  */
}

.activityNameText {
    color:black;
    text-align: center;
}
.locationText {
    color: grey;
    text-align: center;
    /*font-weight:bold;*/
}
.edgeText {
    color:darkblue;
    text-align: center;
}

.node {
    fill: black;  /* text color of nodes*/
    /* no effect:
    white-space: nowrap;
    */
}

.node rect {
  stroke: #333;
  fill: #fff;
  stroke-width: 3px;
}

.node.demand {
  /*stroke: #333;  */
  font-weight: bold
}

.node.demand rect {
  stroke: darkblue;
  fill: #fff;
  stroke-width: 4px;
}

.node.market rect {
  stroke: #ed9736;
  fill: #fff;
  stroke-width: 3px;
}

.node.marketgroup rect {
  stroke: #ffc34c;
  fill: #fff;
  stroke-width: 3px;
}

.node.treatment rect {
  stroke: #f4425c;
  fill: #fff;
  stroke-width: 3px;
}

/* Edges */
/*.edgePath path.path {
  stroke: red;
  /*fill: darkred; /* Arrow head */
  /*lineInterpolate: basis;*/
/*}*/

.edgePath.impact path.path {
  stroke: red;
  opacity: 0.7;
}

.edgePath.benefit path.path {
  stroke: green;
  opacity: 0.7;
}

/* Arrowhead */
.edgePath path {
  stroke: none;
  /*fill: black;*/
  opacity: 0.3;
}
/*.edgePath marker {
  fill: darkgrey; /* Arrow head */
  /*opacity: 1;
}*/

.edgeLabel {
    fill: darkblue;  /* text color of edges*/
}




/*.label {
   /* text color*/
  /* no effect:
  margin-top: 30em;
fill: red;
  display: block;
  text-align: right;
  font: 20px sans-serif;
  background: #fffce2;
  padding: 200px; */
/*}

.edgeLabel {
   /* text color*/
  /* no effect:
  fill: red;
  margin-top: 30em;
  display: block;
  text-align: right;
  font: 20px sans-serif;
  background: #fffce2;
  padding: 200px; */
/*}*/

.error {
  color: red;
}

div.tooltip {
    position: absolute;
    text-align: left;
    width: auto;
    height: auto;
    padding: 2px;
    font: 12px sans-serif;
    background: #fffce2;
    border: 0px;
    border-radius: 8px;
    pointer-events: none;
    /*color: red;*/
}</style><g class="wrapper inner" clip-path="url(#wrapperClipPath_qwpyza)" transform="translate(0,0)"><g class="panCanvas"><g class="output"><g class="clusters"/><g class="edgePaths"><g class="edgePath impact" style="opacity: 1;" stroke-width="5.820210275717886"><path class="path" d="M87.734375,1731L87.734375,1741.0833333333333C87.734375,1751.1666666666667,87.734375,1771.3333333333333,98.25972945601852,1791.5C108.78508391203702,1811.6666666666667,129.83579282407408,1831.8333333333333,140.36114728009258,1841.9166666666667L150.88650173611111,1852" marker-end="url(#arrowhead628)" style="fill: none;"/><defs><marker id="arrowhead628" viewBox="0 0 60 60" refX="9" refY="5" markerUnits="strokeWidth" markerWidth="8" markerHeight="6" orient="auto"><path d="M 0 0 L 10 5 L 0 10 z" style="stroke-width: 1; stroke-dasharray: 1, 0;"/></marker></defs></g><g class="edgePath impact" style="opacity: 1;" stroke-width="34.16444042066897"><path class="path" d="M313.203125,1731L313.203125,1741.0833333333333C313.203125,1751.1666666666667,313.203125,1771.3333333333333,302.67777054398147,1791.5C292.152416087963,1811.6666666666667,271.1017071759259,1831.8333333333333,260.57635271990745,1841.9166666666667L250.05099826388889,1852" marker-end="url(#arrowhead629)" style="fill: none;"/><defs><marker id="arrowhead629" viewBox="0 0 60 60" refX="9" refY="5" markerUnits="strokeWidth" markerWidth="8" markerHeight="6" orient="auto"><path d="M 0 0 L 10 5 L 0 10 z" style="stroke-width: 1; stroke-dasharray: 1, 0;"/></marker></defs></g><g class="edgePath impact" style="opacity: 1;" stroke-width="33.42746052773418"><path class="path" d="M313.203125,1529L313.203125,1537.9166666666667C313.203125,1546.8333333333333,313.203125,1564.6666666666667,313.203125,1582.5C313.203125,1600.3333333333333,313.203125,1618.1666666666667,313.203125,1627.0833333333333L313.203125,1636" marker-end="url(#arrowhead630)" style="fill: none;"/><defs><marker id="arrowhead630" viewBox="0 0 60 60" refX="9" refY="5" markerUnits="strokeWidth" markerWidth="8" markerHeight="6" orient="auto"><path d="M 0 0 L 10 5 L 0 10 z" style="stroke-width: 1; stroke-dasharray: 1, 0;"/></marker></defs></g><g class="edgePath impact" style="opacity: 1;" stroke-width="3.101717886973871"><path class="path" d="M209.046875,1341L209.046875,1349.9166666666667C209.046875,1358.8333333333333,209.046875,1376.6666666666667,218.92694481382978,1394.5C228.80701462765956,1412.3333333333333,248.56715425531914,1430.1666666666667,258.44722406914894,1439.0833333333333L268.3272938829787,1448" marker-end="url(#arrowhead631)" style="fill: none;"/><defs><marker id="arrowhead631" viewBox="0 0 60 60" refX="9" refY="5" markerUnits="strokeWidth" markerWidth="8" markerHeight="6" orient="auto"><path d="M 0 0 L 10 5 L 0 10 z" style="stroke-width: 1; stroke-dasharray: 1, 0;"/></marker></defs></g><g class="edgePath impact" style="opacity: 1;" stroke-width="29.989136619359854"><path class="path" d="M417.359375,1334L417.359375,1344.0833333333333C417.359375,1354.1666666666667,417.359375,1374.3333333333333,407.4793051861702,1393.3333333333333C397.59923537234044,1412.3333333333333,377.8390957446809,1430.1666666666667,367.95902593085106,1439.0833333333333L358.0789561170213,1448" marker-end="url(#arrowhead632)" style="fill: none;"/><defs><marker id="arrowhead632" viewBox="0 0 60 60" refX="9" refY="5" markerUnits="strokeWidth" markerWidth="8" markerHeight="6" orient="auto"><path d="M 0 0 L 10 5 L 0 10 z" style="stroke-width: 1; stroke-dasharray: 1, 0;"/></marker></defs></g><g class="edgePath impact" style="opacity: 1;" stroke-width="35.100316978992886"><path class="path" d="M417.359375,1139L417.359375,1147.9166666666667C417.359375,1156.8333333333333,417.359375,1174.6666666666667,417.359375,1193.6666666666667C417.359375,1212.6666666666667,417.359375,1232.8333333333333,417.359375,1242.9166666666667L417.359375,1253" marker-end="url(#arrowhead633)" style="fill: none;"/><defs><marker id="arrowhead633" viewBox="0 0 60 60" refX="9" refY="5" markerUnits="strokeWidth" markerWidth="8" markerHeight="6" orient="auto"><path d="M 0 0 L 10 5 L 0 10 z" style="stroke-width: 1; stroke-dasharray: 1, 0;"/></marker></defs></g><g class="edgePath impact" style="opacity: 1;" stroke-width="35.07538818468751"><path class="path" d="M417.359375,965L417.359375,972.75C417.359375,980.5,417.359375,996,417.359375,1011.5C417.359375,1027,417.359375,1042.5,417.359375,1050.25L417.359375,1058" marker-end="url(#arrowhead634)" style="fill: none;"/><defs><marker id="arrowhead634" viewBox="0 0 60 60" refX="9" refY="5" markerUnits="strokeWidth" markerWidth="8" markerHeight="6" orient="auto"><path d="M 0 0 L 10 5 L 0 10 z" style="stroke-width: 1; stroke-dasharray: 1, 0;"/></marker></defs></g><g class="edgePath impact" style="opacity: 1;" stroke-width="33.379246043066"><path class="path" d="M417.359375,791L417.359375,798.75C417.359375,806.5,417.359375,822,417.359375,837.5C417.359375,853,417.359375,868.5,417.359375,876.25L417.359375,884" marker-end="url(#arrowhead635)" style="fill: none;"/><defs><marker id="arrowhead635" viewBox="0 0 60 60" refX="9" refY="5" markerUnits="strokeWidth" markerWidth="8" markerHeight="6" orient="auto"><path d="M 0 0 L 10 5 L 0 10 z" style="stroke-width: 1; stroke-dasharray: 1, 0;"/></marker></defs></g><g class="edgePath impact" style="opacity: 1;" stroke-width="8.213141348254485"><path class="path" d="M313.8359375,617L313.8359375,624.75C313.8359375,632.5,313.8359375,648,323.05785290948273,663.5C332.2797683189655,679,350.723599137931,694.5,359.9455145474138,702.25L369.16742995689657,710" marker-end="url(#arrowhead636)" style="fill: none;"/><defs><marker id="arrowhead636" viewBox="0 0 60 60" refX="9" refY="5" markerUnits="strokeWidth" markerWidth="8" markerHeight="6" orient="auto"><path d="M 0 0 L 10 5 L 0 10 z" style="stroke-width: 1; stroke-dasharray: 1, 0;"/></marker></defs></g><g class="edgePath impact" style="opacity: 1;" stroke-width="23.895717284939835"><path class="path" d="M520.8828125,617L520.8828125,624.75C520.8828125,632.5,520.8828125,648,511.6608970905172,663.5C502.4389816810345,679,483.995150862069,694.5,474.7732354525862,702.25L465.55132004310343,710" marker-end="url(#arrowhead637)" style="fill: none;"/><defs><marker id="arrowhead637" viewBox="0 0 60 60" refX="9" refY="5" markerUnits="strokeWidth" markerWidth="8" markerHeight="6" orient="auto"><path d="M 0 0 L 10 5 L 0 10 z" style="stroke-width: 1; stroke-dasharray: 1, 0;"/></marker></defs></g><g class="edgePath impact" style="opacity: 1;" stroke-width="30.119549517910663"><path class="path" d="M520.8828125,443L520.8828125,450.75C520.8828125,458.5,520.8828125,474,520.8828125,489.5C520.8828125,505,520.8828125,520.5,520.8828125,528.25L520.8828125,536" marker-end="url(#arrowhead638)" style="fill: none;"/><defs><marker id="arrowhead638" viewBox="0 0 60 60" refX="9" refY="5" markerUnits="strokeWidth" markerWidth="8" markerHeight="6" orient="auto"><path d="M 0 0 L 10 5 L 0 10 z" style="stroke-width: 1; stroke-dasharray: 1, 0;"/></marker></defs></g><g class="edgePath impact" style="opacity: 1;" stroke-width="30.08325894819307"><path class="path" d="M520.8828125,269L520.8828125,276.75C520.8828125,284.5,520.8828125,300,520.8828125,315.5C520.8828125,331,520.8828125,346.5,520.8828125,354.25L520.8828125,362" marker-end="url(#arrowhead639)" style="fill: none;"/><defs><marker id="arrowhead639" viewBox="0 0 60 60" refX="9" refY="5" markerUnits="strokeWidth" markerWidth="8" markerHeight="6" orient="auto"><path d="M 0 0 L 10 5 L 0 10 z" style="stroke-width: 1; stroke-dasharray: 1, 0;"/></marker></defs></g><g class="edgePath impact" style="opacity: 1;" stroke-width="39.40649493006795"><path class="path" d="M520.8828125,95L520.8828125,102.75C520.8828125,110.5,520.8828125,126,520.8828125,141.5C520.8828125,157,520.8828125,172.5,520.8828125,180.25L520.8828125,188" marker-end="url(#arrowhead640)" style="fill: none;"/><defs><marker id="arrowhead640" viewBox="0 0 60 60" refX="9" refY="5" markerUnits="strokeWidth" markerWidth="8" markerHeight="6" orient="auto"><path d="M 0 0 L 10 5 L 0 10 z" style="stroke-width: 1; stroke-dasharray: 1, 0;"/></marker></defs></g></g><g class="edgeLabels"><g class="edgeLabel" transform="translate(169.7890625,1791.5)" style="opacity: 1;"><g transform="translate(-77.0546875,-30.5)" class="label"><text><tspan xml:space="preserve" dy="1em" x="1">battery, Li-ion,</tspan><tspan xml:space="preserve" dy="1em" x="1">NMC811, rechargeable,</tspan><tspan xml:space="preserve" dy="1em" x="1">prismatic</tspan><tspan xml:space="preserve" dy="1em" x="1">(14.6%)</tspan></text></g></g><g class="edgeLabel" transform="translate(395.2578125,1791.5)" style="opacity: 1;"><g transform="translate(-77.0546875,-30.5)" class="label"><text><tspan xml:space="preserve" dy="1em" x="1">battery, Li-ion,</tspan><tspan xml:space="preserve" dy="1em" x="1">NMC811, rechargeable,</tspan><tspan xml:space="preserve" dy="1em" x="1">prismatic</tspan><tspan xml:space="preserve" dy="1em" x="1">(85.4%)</tspan></text></g></g><g class="edgeLabel" transform="translate(378.3125,1582.5)" style="opacity: 1;"><g transform="translate(-60.109375,-23.5)" class="label"><text><tspan xml:space="preserve" dy="1em" x="1">battery cell, Li-ion,</tspan><tspan xml:space="preserve" dy="1em" x="1">NMC811</tspan><tspan xml:space="preserve" dy="1em" x="1">(83.6%)</tspan></text></g></g><g class="edgeLabel" transform="translate(274.359375,1394.5)" style="opacity: 1;"><g transform="translate(-60.3125,-23.5)" class="label"><text><tspan xml:space="preserve" dy="1em" x="1">cathode, NMC811,</tspan><tspan xml:space="preserve" dy="1em" x="1">for Li-ion battery</tspan><tspan xml:space="preserve" dy="1em" x="1">(7.75%)</tspan></text></g></g><g class="edgeLabel" transform="translate(470.125,1394.5)" style="opacity: 1;"><g transform="translate(-47.765625,-23.5)" class="label"><text><tspan xml:space="preserve" dy="1em" x="1">electrolyte, for</tspan><tspan xml:space="preserve" dy="1em" x="1">Li-ion battery</tspan><tspan xml:space="preserve" dy="1em" x="1">(75.0%)</tspan></text></g></g><g class="edgeLabel" transform="translate(470.125,1192.5)" style="opacity: 1;"><g transform="translate(-47.765625,-23.5)" class="label"><text><tspan xml:space="preserve" dy="1em" x="1">electrolyte, for</tspan><tspan xml:space="preserve" dy="1em" x="1">Li-ion battery</tspan><tspan xml:space="preserve" dy="1em" x="1">(87.8%)</tspan></text></g></g><g class="edgeLabel" transform="translate(518.15625,1011.5)" style="opacity: 1;"><g transform="translate(-95.796875,-16.5)" class="label"><text><tspan xml:space="preserve" dy="1em" x="1">lithium hexafluorophosphate</tspan><tspan xml:space="preserve" dy="1em" x="1">(87.7%)</tspan></text></g></g><g class="edgeLabel" transform="translate(518.15625,837.5)" style="opacity: 1;"><g transform="translate(-95.796875,-16.5)" class="label"><text><tspan xml:space="preserve" dy="1em" x="1">lithium hexafluorophosphate</tspan><tspan xml:space="preserve" dy="1em" x="1">(83.4%)</tspan></text></g></g><g class="edgeLabel" transform="translate(378.203125,663.5)" style="opacity: 1;"><g transform="translate(-59.3671875,-16.5)" class="label"><text><tspan xml:space="preserve" dy="1em" x="1">hydrogen fluoride</tspan><tspan xml:space="preserve" dy="1em" x="1">(20.5%)</tspan></text></g></g><g class="edgeLabel" transform="translate(585.25,663.5)" style="opacity: 1;"><g transform="translate(-59.3671875,-16.5)" class="label"><text><tspan xml:space="preserve" dy="1em" x="1">hydrogen fluoride</tspan><tspan xml:space="preserve" dy="1em" x="1">(59.7%)</tspan></text></g></g><g class="edgeLabel" transform="translate(585.25,489.5)" style="opacity: 1;"><g transform="translate(-59.3671875,-16.5)" class="label"><text><tspan xml:space="preserve" dy="1em" x="1">hydrogen fluoride</tspan><tspan xml:space="preserve" dy="1em" x="1">(75.3%)</tspan></text></g></g><g class="edgeLabel" transform="translate(594.1015625,315.5)" style="opacity: 1;"><g transform="translate(-68.21875,-16.5)" class="label"><text><tspan xml:space="preserve" dy="1em" x="1">fluorspar, 97% purity</tspan><tspan xml:space="preserve" dy="1em" x="1">(75.2%)</tspan></text></g></g><g class="edgeLabel" transform="translate(594.1015625,141.5)" style="opacity: 1;"><g transform="translate(-68.21875,-16.5)" class="label"><text><tspan xml:space="preserve" dy="1em" x="1">fluorspar, 97% purity</tspan><tspan xml:space="preserve" dy="1em" x="1">(98.5%)</tspan></text></g></g></g><g class="nodes"><g class="node demand" id="a6340d3ae1622f5fea25af16af07bbc0" transform="translate(200.46875,1899.5)" style="opacity: 1;"><rect rx="0" ry="0" x="-93.125" y="-47.5" width="186.25" height="95" style="fill: rgb(255, 255, 255);"/><g class="label" transform="translate(0,0)"><g transform="translate(-83.125,-37.5)"><text><tspan xml:space="preserve" dy="1em" x="1">market for battery,</tspan><tspan xml:space="preserve" dy="1em" x="1">Li-ion, NMC811,</tspan><tspan xml:space="preserve" dy="1em" x="1">rechargeable, prismatic</tspan><tspan xml:space="preserve" dy="1em" x="1">GLO</tspan><tspan xml:space="preserve" dy="1em" x="1">(0%)</tspan></text></g></g></g><g class="node production" id="0f8c132a27a299fb959c5e35254f4861" transform="translate(87.734375,1683.5)" style="opacity: 1;"><rect rx="0" ry="0" x="-87.734375" y="-47.5" width="175.46875" height="95" style="fill: rgb(255, 255, 255);"/><g class="label" transform="translate(0,0)"><g transform="translate(-77.734375,-37.5)"><text><tspan xml:space="preserve" dy="1em" x="1">battery production,</tspan><tspan xml:space="preserve" dy="1em" x="1">Li-ion, NMC811,</tspan><tspan xml:space="preserve" dy="1em" x="1">rechargeable, prismatic</tspan><tspan xml:space="preserve" dy="1em" x="1">CN</tspan><tspan xml:space="preserve" dy="1em" x="1">(0%)</tspan></text></g></g></g><g class="node production" id="76d5fbeb2a34f162f3d98c6dacab3281" transform="translate(313.203125,1683.5)" style="opacity: 1;"><rect rx="0" ry="0" x="-87.734375" y="-47.5" width="175.46875" height="95" style="fill: rgb(255, 255, 255);"/><g class="label" transform="translate(0,0)"><g transform="translate(-77.734375,-37.5)"><text><tspan xml:space="preserve" dy="1em" x="1">battery production,</tspan><tspan xml:space="preserve" dy="1em" x="1">Li-ion, NMC811,</tspan><tspan xml:space="preserve" dy="1em" x="1">rechargeable, prismatic</tspan><tspan xml:space="preserve" dy="1em" x="1">RoW</tspan><tspan xml:space="preserve" dy="1em" x="1">(0%)</tspan></text></g></g></g><g class="node production" id="5e8a6fa4a442463434afa4917aa35412" transform="translate(313.203125,1488.5)" style="opacity: 1;"><rect rx="0" ry="0" x="-86.3125" y="-40.5" width="172.625" height="81" style="fill: rgb(255, 255, 255);"/><g class="label" transform="translate(0,0)"><g transform="translate(-76.3125,-30.5)"><text><tspan xml:space="preserve" dy="1em" x="1">battery cell production,</tspan><tspan xml:space="preserve" dy="1em" x="1">Li-ion, NMC811</tspan><tspan xml:space="preserve" dy="1em" x="1">RoW</tspan><tspan xml:space="preserve" dy="1em" x="1">(0%)</tspan></text></g></g></g><g class="node market" id="80310b5021efcb8abcf6d15a9f5ce58e" transform="translate(209.046875,1293.5)" style="opacity: 1;"><rect rx="0" ry="0" x="-75.2578125" y="-47.5" width="150.515625" height="95" style="fill: rgb(255, 255, 255);"/><g class="label" transform="translate(0,0)"><g transform="translate(-65.2578125,-37.5)"><text><tspan xml:space="preserve" dy="1em" x="1">market for cathode,</tspan><tspan xml:space="preserve" dy="1em" x="1">NMC811, for Li-ion</tspan><tspan xml:space="preserve" dy="1em" x="1">battery</tspan><tspan xml:space="preserve" dy="1em" x="1">RoW</tspan><tspan xml:space="preserve" dy="1em" x="1">(0%)</tspan></text></g></g></g><g class="node market" id="b49d257658eed532094d68babcecf2e1" transform="translate(417.359375,1293.5)" style="opacity: 1;"><rect rx="0" ry="0" x="-83.0546875" y="-40.5" width="166.109375" height="81" style="fill: rgb(255, 255, 255);"/><g class="label" transform="translate(0,0)"><g transform="translate(-73.0546875,-30.5)"><text><tspan xml:space="preserve" dy="1em" x="1">market for electrolyte,</tspan><tspan xml:space="preserve" dy="1em" x="1">for Li-ion battery</tspan><tspan xml:space="preserve" dy="1em" x="1">GLO</tspan><tspan xml:space="preserve" dy="1em" x="1">(0%)</tspan></text></g></g></g><g class="node production" id="ed46c95026d725d4a7a477fc22ffe941" transform="translate(417.359375,1098.5)" style="opacity: 1;"><rect rx="0" ry="0" x="-84.3046875" y="-40.5" width="168.609375" height="81" style="fill: rgb(255, 255, 255);"/><g class="label" transform="translate(0,0)"><g transform="translate(-74.3046875,-30.5)"><text><tspan xml:space="preserve" dy="1em" x="1">electrolyte production,</tspan><tspan xml:space="preserve" dy="1em" x="1">for Li-ion battery</tspan><tspan xml:space="preserve" dy="1em" x="1">GLO</tspan><tspan xml:space="preserve" dy="1em" x="1">(0%)</tspan></text></g></g></g><g class="node market" id="d971937192fae29417d670b40a21f603" transform="translate(417.359375,924.5)" style="opacity: 1;"><rect rx="0" ry="0" x="-80.8359375" y="-40.5" width="161.671875" height="81" style="fill: rgb(255, 255, 255);"/><g class="label" transform="translate(0,0)"><g transform="translate(-70.8359375,-30.5)"><text><tspan xml:space="preserve" dy="1em" x="1">market for lithium</tspan><tspan xml:space="preserve" dy="1em" x="1">hexafluorophosphate</tspan><tspan xml:space="preserve" dy="1em" x="1">GLO</tspan><tspan xml:space="preserve" dy="1em" x="1">(0%)</tspan></text></g></g></g><g class="node production" id="70c10a781a5a3817bb83a7ce811fa1d4" transform="translate(417.359375,750.5)" style="opacity: 1;"><rect rx="0" ry="0" x="-105.796875" y="-40.5" width="211.59375" height="81" style="fill: rgb(255, 255, 255);"/><g class="label" transform="translate(0,0)"><g transform="translate(-95.796875,-30.5)"><text><tspan xml:space="preserve" dy="1em" x="1">lithium hexafluorophosphate</tspan><tspan xml:space="preserve" dy="1em" x="1">production</tspan><tspan xml:space="preserve" dy="1em" x="1">RoW</tspan><tspan xml:space="preserve" dy="1em" x="1">(0%)</tspan></text></g></g></g><g class="node market" id="8ef418d7ceee8807d8622eb6f2cb5aa8" transform="translate(313.8359375,576.5)" style="opacity: 1;"><rect rx="0" ry="0" x="-78.5234375" y="-40.5" width="157.046875" height="81" style="fill: rgb(255, 255, 255);"/><g class="label" transform="translate(0,0)"><g transform="translate(-68.5234375,-30.5)"><text><tspan xml:space="preserve" dy="1em" x="1">market for hydrogen</tspan><tspan xml:space="preserve" dy="1em" x="1">fluoride</tspan><tspan xml:space="preserve" dy="1em" x="1">RER</tspan><tspan xml:space="preserve" dy="1em" x="1">(0%)</tspan></text></g></g></g><g class="node market" id="a8545fdf18ae8f75037b9a345930690e" transform="translate(520.8828125,576.5)" style="opacity: 1;"><rect rx="0" ry="0" x="-78.5234375" y="-40.5" width="157.046875" height="81" style="fill: rgb(255, 255, 255);"/><g class="label" transform="translate(0,0)"><g transform="translate(-68.5234375,-30.5)"><text><tspan xml:space="preserve" dy="1em" x="1">market for hydrogen</tspan><tspan xml:space="preserve" dy="1em" x="1">fluoride</tspan><tspan xml:space="preserve" dy="1em" x="1">RoW</tspan><tspan xml:space="preserve" dy="1em" x="1">(0%)</tspan></text></g></g></g><g class="node production" id="a67afab573e48bd557ba52eaab3c98ae" transform="translate(520.8828125,402.5)" style="opacity: 1;"><rect rx="0" ry="0" x="-69.3671875" y="-40.5" width="138.734375" height="81" style="fill: rgb(255, 255, 255);"/><g class="label" transform="translate(0,0)"><g transform="translate(-59.3671875,-30.5)"><text><tspan xml:space="preserve" dy="1em" x="1">hydrogen fluoride</tspan><tspan xml:space="preserve" dy="1em" x="1">production</tspan><tspan xml:space="preserve" dy="1em" x="1">RoW</tspan><tspan xml:space="preserve" dy="1em" x="1">(0%)</tspan></text></g></g></g><g class="node market" id="068b36f8228f2274f30e3f2a4021de4b" transform="translate(520.8828125,228.5)" style="opacity: 1;"><rect rx="0" ry="0" x="-77.6484375" y="-40.5" width="155.296875" height="81" style="fill: rgb(255, 255, 255);"/><g class="label" transform="translate(0,0)"><g transform="translate(-67.6484375,-30.5)"><text><tspan xml:space="preserve" dy="1em" x="1">market for fluorspar,</tspan><tspan xml:space="preserve" dy="1em" x="1">97% purity</tspan><tspan xml:space="preserve" dy="1em" x="1">GLO</tspan><tspan xml:space="preserve" dy="1em" x="1">(0%)</tspan></text></g></g></g><g class="node production" id="845598e012c373c136d6c951dbf13583" transform="translate(520.8828125,47.5)" style="opacity: 1;"><rect rx="0" ry="0" x="-101.5" y="-47.5" width="203" height="95" style="fill: rgb(255, 4, 4);"/><g class="label" transform="translate(0,0)"><g transform="translate(-91.5,-37.5)"><text><tspan xml:space="preserve" dy="1em" x="1">scandium oxide production,</tspan><tspan xml:space="preserve" dy="1em" x="1">from rare earth</tspan><tspan xml:space="preserve" dy="1em" x="1">tailings</tspan><tspan xml:space="preserve" dy="1em" x="1">CN-NM</tspan><tspan xml:space="preserve" dy="1em" x="1">(99%)</tspan></text></g></g></g></g></g></g></g></svg>