<svg xmlns="http://www.w3.org/2000/svg" width="684.76708984375" height="1235.1405029296875"><style>


/*to make the svg resizable*/ /*
.svg-container {
    display: inline-block;
    position: relative;
    width: 100%;
    /*padding-bottom: 100%; /* aspect ratio */ /*
    vertical-align: top;
    /*overflow: hidden;*/ /*
}

.svg-content-responsive {
    display: inline-block;
    position: absolute;
    top: 10px;
    left: 0;
} */ /*

svg {
  border: 1px solid #999;
  /*overflow: hidden;*/ /*
} */

.canvas {
  overflow: visible;
}
.canvas .wrapper.outer &gt; .background {
  fill: #FFFFFF;
}
.canvas .wrapper.inner &gt; .background {
  fill: #FFFFFF;
  cursor: move;
}
.canvas .background {
  fill: #FFFFFF;
  stroke: #333333;
  cursor: move;
}
.canvas .panCanvas {
  cursor: click;
}

.canvas .minimap {
  stroke: #000000; /* #111111 */
  stroke-width: 1px;
}

.canvas .minimap .frame {
  pointer-events: all;
}

.canvas .minimap .container {
  stroke: #000000; /* #111111 */
  /*stroke-width: 1px;*/
  /*border: 1px solid #999;*/
}

.canvas .minimap .frame .background {
  stroke: #FF0000; /* #111111 */
  stroke-width: 10px;
  fill-opacity: 0.1;   /*grey shade of mini-map*/
  fill: #FFFFFF; /* #FF0000 */
  /*fill: url(#minimapGradient_qwpyza); */
  filter: url(#minimapDropShadow_qwpyza);
  cursor: move;
  border: 1px solid #999;
}

/*
.cluster rect {
  stroke: #333;
  fill: #000;
  fill-opacity: 0.1;
  stroke-width: 1.5px;
}*/

h1, h2 {
  color: #333;
}

/*textarea {
  width: 800px;
}*/

text {
  font-family: sans-serif;
  font-size: 14px;
  /* no effect:
  text-align: center;
  word-wrap: break-word;
  width: 50px;
  max-width: 60px;
  */
}

.activityNameText {
    color:black;
    text-align: center;
}
.locationText {
    color: grey;
    text-align: center;
    /*font-weight:bold;*/
}
.edgeText {
    color:darkblue;
    text-align: center;
}

.node {
    fill: black;  /* text color of nodes*/
    /* no effect:
    white-space: nowrap;
    */
}

.node rect {
  stroke: #333;
  fill: #fff;
  stroke-width: 3px;
}

.node.demand {
  /*stroke: #333;  */
  font-weight: bold
}

.node.demand rect {
  stroke: darkblue;
  fill: #fff;
  stroke-width: 4px;
}

.node.market rect {
  stroke: #ed9736;
  fill: #fff;
  stroke-width: 3px;
}

.node.marketgroup rect {
  stroke: #ffc34c;
  fill: #fff;
  stroke-width: 3px;
}

.node.treatment rect {
  stroke: #f4425c;
  fill: #fff;
  stroke-width: 3px;
}

/* Edges */
/*.edgePath path.path {
  stroke: red;
  /*fill: darkred; /* Arrow head */
  /*lineInterpolate: basis;*/
/*}*/

.edgePath.impact path.path {
  stroke: red;
  opacity: 0.7;
}

.edgePath.benefit path.path {
  stroke: green;
  opacity: 0.7;
}

/* Arrowhead */
.edgePath path {
  stroke: none;
  /*fill: black;*/
  opacity: 0.3;
}
/*.edgePath marker {
  fill: darkgrey; /* Arrow head */
  /*opacity: 1;
}*/

.edgeLabel {
    fill: darkblue;  /* text color of edges*/
}




/*.label {
   /* text color*/
  /* no effect:
  margin-top: 30em;
fill: red;
  display: block;
  text-align: right;
  font: 20px sans-serif;
  background: #fffce2;
  padding: 200px; */
/*}

.edgeLabel {
   /* text color*/
  /* no effect:
  fill: red;
  margin-top: 30em;
  display: block;
  text-align: right;
  font: 20px sans-serif;
  background: #fffce2;
  padding: 200px; */
/*}*/

.error {
  color: red;
}

div.tooltip {
    position: absolute;
    text-align: left;
    width: auto;
    height: auto;
    padding: 2px;
    font: 12px sans-serif;
    background: #fffce2;
    border: 0px;
    border-radius: 8px;
    pointer-events: none;
    /*color: red;*/
}</style><g class="wrapper inner" clip-path="url(#wrapperClipPath_qwpyza)" transform="translate(0,0)"><g class="panCanvas"><g class="output"><g class="clusters"/><g class="edgePaths"><g class="edgePath impact" style="opacity: 1;" stroke-width="5.708091894469441"><path class="path" d="M87.734375,1439L87.734375,1449.0833333333333C87.734375,1459.1666666666667,87.734375,1479.3333333333333,109.79166666666667,1499.9821552321553C131.84895833333334,1520.630977130977,175.96354166666666,1541.761954261954,198.02083333333334,1552.3274428274428L220.078125,1562.8929313929314" marker-end="url(#arrowhead288)" style="fill: none;"/><defs><marker id="arrowhead288" viewBox="0 0 60 60" refX="9" refY="5" markerUnits="strokeWidth" markerWidth="8" markerHeight="6" orient="auto"><path d="M 0 0 L 10 5 L 0 10 z" style="stroke-width: 1; stroke-dasharray: 1, 0;"/></marker></defs></g><g class="edgePath impact" style="opacity: 1;" stroke-width="33.7296293577904"><path class="path" d="M313.203125,1439L313.203125,1449.0833333333333C313.203125,1459.1666666666667,313.203125,1479.3333333333333,313.203125,1499.5C313.203125,1519.6666666666667,313.203125,1539.8333333333333,313.203125,1549.9166666666667L313.203125,1560" marker-end="url(#arrowhead289)" style="fill: none;"/><defs><marker id="arrowhead289" viewBox="0 0 60 60" refX="9" refY="5" markerUnits="strokeWidth" markerWidth="8" markerHeight="6" orient="auto"><path d="M 0 0 L 10 5 L 0 10 z" style="stroke-width: 1; stroke-dasharray: 1, 0;"/></marker></defs></g><g class="edgePath impact" style="opacity: 1;" stroke-width="0.4846278178517461"><path class="path" d="M661.8984375,85.43577373184142L680.8990885416666,95.94647810986787C699.8997395833334,106.45718248789429,737.9010416666666,127.47859124394715,756.9016927083334,153.65596228864024C775.90234375,179.83333333333334,775.90234375,211.16666666666666,775.90234375,242.5C775.90234375,273.8333333333333,775.90234375,305.1666666666667,775.90234375,336.5C775.90234375,367.8333333333333,775.90234375,399.1666666666667,775.90234375,430.5C775.90234375,461.8333333333333,775.90234375,493.1666666666667,775.90234375,524.5C775.90234375,555.8333333333334,775.90234375,587.1666666666666,775.90234375,617.3333333333334C775.90234375,647.5,775.90234375,676.5,775.90234375,706.6666666666666C775.90234375,736.8333333333334,775.90234375,768.1666666666666,775.90234375,800.6666666666666C775.90234375,833.1666666666666,775.90234375,866.8333333333334,775.90234375,900.5C775.90234375,934.1666666666666,775.90234375,967.8333333333334,775.90234375,1001.5C775.90234375,1035.1666666666667,775.90234375,1068.8333333333333,775.90234375,1101.3333333333333C775.90234375,1133.8333333333333,775.90234375,1165.1666666666667,775.90234375,1196.5C775.90234375,1227.8333333333333,775.90234375,1259.1666666666667,775.90234375,1291.6666666666667C775.90234375,1324.1666666666667,775.90234375,1357.8333333333333,775.90234375,1392.6666666666667C775.90234375,1427.5,775.90234375,1463.5,714.306640625,1495.8772361567233C652.7109375,1528.254472313446,529.51953125,1557.0089446268921,467.923828125,1571.3861807836154L406.328125,1585.7634169403382" marker-end="url(#arrowhead290)" style="fill: none;"/><defs><marker id="arrowhead290" viewBox="0 0 60 60" refX="9" refY="5" markerUnits="strokeWidth" markerWidth="8" markerHeight="6" orient="auto"><path d="M 0 0 L 10 5 L 0 10 z" style="stroke-width: 1; stroke-dasharray: 1, 0;"/></marker></defs></g><g class="edgePath impact" style="opacity: 1;" stroke-width="29.711112556604572"><path class="path" d="M313.203125,1237L313.203125,1245.9166666666667C313.203125,1254.8333333333333,313.203125,1272.6666666666667,313.203125,1290.5C313.203125,1308.3333333333333,313.203125,1326.1666666666667,313.203125,1335.0833333333333L313.203125,1344" marker-end="url(#arrowhead291)" style="fill: none;"/><defs><marker id="arrowhead291" viewBox="0 0 60 60" refX="9" refY="5" markerUnits="strokeWidth" markerWidth="8" markerHeight="6" orient="auto"><path d="M 0 0 L 10 5 L 0 10 z" style="stroke-width: 1; stroke-dasharray: 1, 0;"/></marker></defs></g><g class="edgePath impact" style="opacity: 1;" stroke-width="27.23433345919424"><path class="path" d="M313.203125,1049L313.203125,1057.9166666666667C313.203125,1066.8333333333333,313.203125,1084.6666666666667,313.203125,1102.5C313.203125,1120.3333333333333,313.203125,1138.1666666666667,313.203125,1147.0833333333333L313.203125,1156" marker-end="url(#arrowhead292)" style="fill: none;"/><defs><marker id="arrowhead292" viewBox="0 0 60 60" refX="9" refY="5" markerUnits="strokeWidth" markerWidth="8" markerHeight="6" orient="auto"><path d="M 0 0 L 10 5 L 0 10 z" style="stroke-width: 1; stroke-dasharray: 1, 0;"/></marker></defs></g><g class="edgePath impact" style="opacity: 1;" stroke-width="27.118675214501398"><path class="path" d="M242.890625,847L242.890625,855.9166666666666C242.890625,864.8333333333334,242.890625,882.6666666666666,249.09808168316832,900.5C255.30553836633666,918.3333333333334,267.72045173267327,936.1666666666666,273.9279084158416,945.0833333333334L280.1353650990099,954" marker-end="url(#arrowhead293)" style="fill: none;"/><defs><marker id="arrowhead293" viewBox="0 0 60 60" refX="9" refY="5" markerUnits="strokeWidth" markerWidth="8" markerHeight="6" orient="auto"><path d="M 0 0 L 10 5 L 0 10 z" style="stroke-width: 1; stroke-dasharray: 1, 0;"/></marker></defs></g><g class="edgePath impact" style="opacity: 1;" stroke-width="0.11507609282403512"><path class="path" d="M606.0348661819307,95L608.421633276609,103.91666666666667C610.8084003712871,112.83333333333333,615.5819345606436,130.66666666666666,617.9687016553218,155.25C620.35546875,179.83333333333334,620.35546875,211.16666666666666,620.35546875,242.5C620.35546875,273.8333333333333,620.35546875,305.1666666666667,620.35546875,336.5C620.35546875,367.8333333333333,620.35546875,399.1666666666667,620.35546875,430.5C620.35546875,461.8333333333333,620.35546875,493.1666666666667,620.35546875,524.5C620.35546875,555.8333333333334,620.35546875,587.1666666666666,620.35546875,617.3333333333334C620.35546875,647.5,620.35546875,676.5,620.35546875,706.6666666666666C620.35546875,736.8333333333334,620.35546875,768.1666666666666,620.35546875,800.6666666666666C620.35546875,833.1666666666666,620.35546875,866.8333333333334,581.7063802083334,896.3755325507751C543.0572916666666,925.917731768217,465.7591145833333,951.335463536434,427.1100260416667,964.0443294205425L388.4609375,976.7531953046508" marker-end="url(#arrowhead294)" style="fill: none;"/><defs><marker id="arrowhead294" viewBox="0 0 60 60" refX="9" refY="5" markerUnits="strokeWidth" markerWidth="8" markerHeight="6" orient="auto"><path d="M 0 0 L 10 5 L 0 10 z" style="stroke-width: 1; stroke-dasharray: 1, 0;"/></marker></defs></g><g class="edgePath impact" style="opacity: 1;" stroke-width="27.017630857474387"><path class="path" d="M242.890625,659L242.890625,666.75C242.890625,674.5,242.890625,690,242.890625,705.5C242.890625,721,242.890625,736.5,242.890625,744.25L242.890625,752" marker-end="url(#arrowhead295)" style="fill: none;"/><defs><marker id="arrowhead295" viewBox="0 0 60 60" refX="9" refY="5" markerUnits="strokeWidth" markerWidth="8" markerHeight="6" orient="auto"><path d="M 0 0 L 10 5 L 0 10 z" style="stroke-width: 1; stroke-dasharray: 1, 0;"/></marker></defs></g><g class="edgePath impact" style="opacity: 1;" stroke-width="26.94026548829345"><path class="path" d="M170.1015625,471L170.1015625,479.9166666666667C170.1015625,488.8333333333333,170.1015625,506.6666666666667,177.0061987477837,524.5C183.91083499556737,542.3333333333334,197.72010749113474,560.1666666666666,204.62474373891845,569.0833333333334L211.52937998670214,578" marker-end="url(#arrowhead296)" style="fill: none;"/><defs><marker id="arrowhead296" viewBox="0 0 60 60" refX="9" refY="5" markerUnits="strokeWidth" markerWidth="8" markerHeight="6" orient="auto"><path d="M 0 0 L 10 5 L 0 10 z" style="stroke-width: 1; stroke-dasharray: 1, 0;"/></marker></defs></g><g class="edgePath impact" style="opacity: 1;" stroke-width="0.07140112232784997"><path class="path" d="M540.7554339418317,95L530.8879918265264,103.91666666666667C521.0205497112212,112.83333333333333,501.28566548061053,130.66666666666666,491.41822336530527,155.25C481.55078125,179.83333333333334,481.55078125,211.16666666666666,481.55078125,242.5C481.55078125,273.8333333333333,481.55078125,305.1666666666667,481.55078125,336.5C481.55078125,367.8333333333333,481.55078125,399.1666666666667,481.55078125,430.5C481.55078125,461.8333333333333,481.55078125,493.1666666666667,454.2506510416667,519.5859125652651C426.9505208333333,546.0051584638635,372.3502604166667,567.5103169277269,345.0501302083333,578.2628961596587L317.75,589.0154753915904" marker-end="url(#arrowhead297)" style="fill: none;"/><defs><marker id="arrowhead297" viewBox="0 0 60 60" refX="9" refY="5" markerUnits="strokeWidth" markerWidth="8" markerHeight="6" orient="auto"><path d="M 0 0 L 10 5 L 0 10 z" style="stroke-width: 1; stroke-dasharray: 1, 0;"/></marker></defs></g><g class="edgePath impact" style="opacity: 1;" stroke-width="7.777843584565307"><path class="path" d="M72.72265625,283L72.72265625,291.9166666666667C72.72265625,300.8333333333333,72.72265625,318.6666666666667,81.9598397329344,336.5C91.1970232158688,354.3333333333333,109.67139018173759,372.1666666666667,118.908573664672,381.0833333333333L128.1457571476064,390" marker-end="url(#arrowhead298)" style="fill: none;"/><defs><marker id="arrowhead298" viewBox="0 0 60 60" refX="9" refY="5" markerUnits="strokeWidth" markerWidth="8" markerHeight="6" orient="auto"><path d="M 0 0 L 10 5 L 0 10 z" style="stroke-width: 1; stroke-dasharray: 1, 0;"/></marker></defs></g><g class="edgePath impact" style="opacity: 1;" stroke-width="18.961067559047823"><path class="path" d="M267.48046875,283L267.48046875,291.9166666666667C267.48046875,300.8333333333333,267.48046875,318.6666666666667,258.2432852670656,336.5C249.00610178413118,354.3333333333333,230.5317348182624,372.1666666666667,221.294551335328,381.0833333333333L212.0573678523936,390" marker-end="url(#arrowhead299)" style="fill: none;"/><defs><marker id="arrowhead299" viewBox="0 0 60 60" refX="9" refY="5" markerUnits="strokeWidth" markerWidth="8" markerHeight="6" orient="auto"><path d="M 0 0 L 10 5 L 0 10 z" style="stroke-width: 1; stroke-dasharray: 1, 0;"/></marker></defs></g><g class="edgePath impact" style="opacity: 1;" stroke-width="18.887647823621325"><path class="path" d="M194.69140625,95L194.69140625,103.91666666666667C194.69140625,112.83333333333333,194.69140625,130.66666666666666,201.5960424977837,148.5C208.50067874556737,166.33333333333334,222.30995124113474,184.16666666666666,229.21458748891845,193.08333333333334L236.11922373670214,202" marker-end="url(#arrowhead300)" style="fill: none;"/><defs><marker id="arrowhead300" viewBox="0 0 60 60" refX="9" refY="5" markerUnits="strokeWidth" markerWidth="8" markerHeight="6" orient="auto"><path d="M 0 0 L 10 5 L 0 10 z" style="stroke-width: 1; stroke-dasharray: 1, 0;"/></marker></defs></g><g class="edgePath impact" style="opacity: 1;" stroke-width="0.06775966515722304"><path class="path" d="M524.7421875,74.87154412559238L493.9967447916667,87.14295343799365C463.2513020833333,99.41436275039491,401.7604166666667,123.95718137519746,364.11033771054963,145.1452573542654C326.46025875443263,166.33333333333334,312.65098625886526,184.16666666666666,305.7463500110816,193.08333333333334L298.8417137632979,202" marker-end="url(#arrowhead301)" style="fill: none;"/><defs><marker id="arrowhead301" viewBox="0 0 60 60" refX="9" refY="5" markerUnits="strokeWidth" markerWidth="8" markerHeight="6" orient="auto"><path d="M 0 0 L 10 5 L 0 10 z" style="stroke-width: 1; stroke-dasharray: 1, 0;"/></marker></defs></g></g><g class="edgeLabels"><g class="edgeLabel" transform="translate(169.7890625,1499.5)" style="opacity: 1;"><g transform="translate(-77.0546875,-30.5)" class="label"><text><tspan xml:space="preserve" dy="1em" x="1">battery, Li-ion,</tspan><tspan xml:space="preserve" dy="1em" x="1">NMC811, rechargeable,</tspan><tspan xml:space="preserve" dy="1em" x="1">prismatic</tspan><tspan xml:space="preserve" dy="1em" x="1">(14.3%)</tspan></text></g></g><g class="edgeLabel" transform="translate(395.2578125,1499.5)" style="opacity: 1;"><g transform="translate(-77.0546875,-30.5)" class="label"><text><tspan xml:space="preserve" dy="1em" x="1">battery, Li-ion,</tspan><tspan xml:space="preserve" dy="1em" x="1">NMC811, rechargeable,</tspan><tspan xml:space="preserve" dy="1em" x="1">prismatic</tspan><tspan xml:space="preserve" dy="1em" x="1">(84.3%)</tspan></text></g></g><g class="edgeLabel" transform="translate(839.39453125,799.5)" style="opacity: 1;"><g transform="translate(-58.4921875,-23.5)" class="label"><text><tspan xml:space="preserve" dy="1em" x="1">transport, freight,</tspan><tspan xml:space="preserve" dy="1em" x="1">lorry</tspan><tspan xml:space="preserve" dy="1em" x="1">(1.21%)</tspan></text></g></g><g class="edgeLabel" transform="translate(378.3125,1290.5)" style="opacity: 1;"><g transform="translate(-60.109375,-23.5)" class="label"><text><tspan xml:space="preserve" dy="1em" x="1">battery cell, Li-ion,</tspan><tspan xml:space="preserve" dy="1em" x="1">NMC811</tspan><tspan xml:space="preserve" dy="1em" x="1">(74.3%)</tspan></text></g></g><g class="edgeLabel" transform="translate(378.515625,1102.5)" style="opacity: 1;"><g transform="translate(-60.3125,-23.5)" class="label"><text><tspan xml:space="preserve" dy="1em" x="1">cathode, NMC811,</tspan><tspan xml:space="preserve" dy="1em" x="1">for Li-ion battery</tspan><tspan xml:space="preserve" dy="1em" x="1">(68.1%)</tspan></text></g></g><g class="edgeLabel" transform="translate(308.203125,900.5)" style="opacity: 1;"><g transform="translate(-60.3125,-23.5)" class="label"><text><tspan xml:space="preserve" dy="1em" x="1">cathode, NMC811,</tspan><tspan xml:space="preserve" dy="1em" x="1">for Li-ion battery</tspan><tspan xml:space="preserve" dy="1em" x="1">(67.8%)</tspan></text></g></g><g class="edgeLabel" transform="translate(683.84765625,524.5)" style="opacity: 1;"><g transform="translate(-58.4921875,-23.5)" class="label"><text><tspan xml:space="preserve" dy="1em" x="1">transport, freight,</tspan><tspan xml:space="preserve" dy="1em" x="1">lorry</tspan><tspan xml:space="preserve" dy="1em" x="1">(0.288%)</tspan></text></g></g><g class="edgeLabel" transform="translate(295.7265625,705.5)" style="opacity: 1;"><g transform="translate(-47.8359375,-16.5)" class="label"><text><tspan xml:space="preserve" dy="1em" x="1">NMC811 oxide</tspan><tspan xml:space="preserve" dy="1em" x="1">(67.5%)</tspan></text></g></g><g class="edgeLabel" transform="translate(222.9375,524.5)" style="opacity: 1;"><g transform="translate(-47.8359375,-16.5)" class="label"><text><tspan xml:space="preserve" dy="1em" x="1">NMC811 oxide</tspan><tspan xml:space="preserve" dy="1em" x="1">(67.4%)</tspan></text></g></g><g class="edgeLabel" transform="translate(545.04296875,336.5)" style="opacity: 1;"><g transform="translate(-58.4921875,-23.5)" class="label"><text><tspan xml:space="preserve" dy="1em" x="1">transport, freight,</tspan><tspan xml:space="preserve" dy="1em" x="1">lorry</tspan><tspan xml:space="preserve" dy="1em" x="1">(0.179%)</tspan></text></g></g><g class="edgeLabel" transform="translate(135.55078125,336.5)" style="opacity: 1;"><g transform="translate(-57.828125,-16.5)" class="label"><text><tspan xml:space="preserve" dy="1em" x="1">lithium hydroxide</tspan><tspan xml:space="preserve" dy="1em" x="1">(19.4%)</tspan></text></g></g><g class="edgeLabel" transform="translate(335.26953125,336.5)" style="opacity: 1;"><g transform="translate(-62.7890625,-16.5)" class="label"><text><tspan xml:space="preserve" dy="1em" x="1">NMC811 hydroxide</tspan><tspan xml:space="preserve" dy="1em" x="1">(47.4%)</tspan></text></g></g><g class="edgeLabel" transform="translate(262.48046875,148.5)" style="opacity: 1;"><g transform="translate(-62.7890625,-16.5)" class="label"><text><tspan xml:space="preserve" dy="1em" x="1">NMC811 hydroxide</tspan><tspan xml:space="preserve" dy="1em" x="1">(47.2%)</tspan></text></g></g><g class="edgeLabel" transform="translate(403.76171875,148.5)" style="opacity: 1;"><g transform="translate(-58.4921875,-23.5)" class="label"><text><tspan xml:space="preserve" dy="1em" x="1">transport, freight,</tspan><tspan xml:space="preserve" dy="1em" x="1">lorry</tspan><tspan xml:space="preserve" dy="1em" x="1">(0.169%)</tspan></text></g></g></g><g class="nodes"><g class="node demand" id="a6340d3ae1622f5fea25af16af07bbc0" transform="translate(313.203125,1607.5)" style="opacity: 1;"><rect rx="0" ry="0" x="-93.125" y="-47.5" width="186.25" height="95" style="fill: rgb(255, 255, 255);"/><g class="label" transform="translate(0,0)"><g transform="translate(-83.125,-37.5)"><text><tspan xml:space="preserve" dy="1em" x="1">market for battery,</tspan><tspan xml:space="preserve" dy="1em" x="1">Li-ion, NMC811,</tspan><tspan xml:space="preserve" dy="1em" x="1">rechargeable, prismatic</tspan><tspan xml:space="preserve" dy="1em" x="1">GLO</tspan><tspan xml:space="preserve" dy="1em" x="1">(0%)</tspan></text></g></g></g><g class="node production" id="0f8c132a27a299fb959c5e35254f4861" transform="translate(87.734375,1391.5)" style="opacity: 1;"><rect rx="0" ry="0" x="-87.734375" y="-47.5" width="175.46875" height="95" style="fill: rgb(255, 255, 255);"/><g class="label" transform="translate(0,0)"><g transform="translate(-77.734375,-37.5)"><text><tspan xml:space="preserve" dy="1em" x="1">battery production,</tspan><tspan xml:space="preserve" dy="1em" x="1">Li-ion, NMC811,</tspan><tspan xml:space="preserve" dy="1em" x="1">rechargeable, prismatic</tspan><tspan xml:space="preserve" dy="1em" x="1">CN</tspan><tspan xml:space="preserve" dy="1em" x="1">(0%)</tspan></text></g></g></g><g class="node production" id="76d5fbeb2a34f162f3d98c6dacab3281" transform="translate(313.203125,1391.5)" style="opacity: 1;"><rect rx="0" ry="0" x="-87.734375" y="-47.5" width="175.46875" height="95" style="fill: rgb(255, 255, 255);"/><g class="label" transform="translate(0,0)"><g transform="translate(-77.734375,-37.5)"><text><tspan xml:space="preserve" dy="1em" x="1">battery production,</tspan><tspan xml:space="preserve" dy="1em" x="1">Li-ion, NMC811,</tspan><tspan xml:space="preserve" dy="1em" x="1">rechargeable, prismatic</tspan><tspan xml:space="preserve" dy="1em" x="1">RoW</tspan><tspan xml:space="preserve" dy="1em" x="1">(0%)</tspan></text></g></g></g><g class="node production" id="15316df2336647cabddb34af3bf11d73" transform="translate(593.3203125,47.5)" style="opacity: 1;"><rect rx="0" ry="0" x="-68.578125" y="-47.5" width="137.15625" height="95" style="fill: rgb(255, 255, 255);"/><g class="label" transform="translate(0,0)"><g transform="translate(-58.578125,-37.5)"><text><tspan xml:space="preserve" dy="1em" x="1">transport, freight,</tspan><tspan xml:space="preserve" dy="1em" x="1">lorry, unspecified,</tspan><tspan xml:space="preserve" dy="1em" x="1">regional delivery</tspan><tspan xml:space="preserve" dy="1em" x="1">World</tspan><tspan xml:space="preserve" dy="1em" x="1">(0%)</tspan></text></g></g></g><g class="node production" id="5e8a6fa4a442463434afa4917aa35412" transform="translate(313.203125,1196.5)" style="opacity: 1;"><rect rx="0" ry="0" x="-86.3125" y="-40.5" width="172.625" height="81" style="fill: rgb(255, 255, 255);"/><g class="label" transform="translate(0,0)"><g transform="translate(-76.3125,-30.5)"><text><tspan xml:space="preserve" dy="1em" x="1">battery cell production,</tspan><tspan xml:space="preserve" dy="1em" x="1">Li-ion, NMC811</tspan><tspan xml:space="preserve" dy="1em" x="1">RoW</tspan><tspan xml:space="preserve" dy="1em" x="1">(0%)</tspan></text></g></g></g><g class="node market" id="80310b5021efcb8abcf6d15a9f5ce58e" transform="translate(313.203125,1001.5)" style="opacity: 1;"><rect rx="0" ry="0" x="-75.2578125" y="-47.5" width="150.515625" height="95" style="fill: rgb(255, 255, 255);"/><g class="label" transform="translate(0,0)"><g transform="translate(-65.2578125,-37.5)"><text><tspan xml:space="preserve" dy="1em" x="1">market for cathode,</tspan><tspan xml:space="preserve" dy="1em" x="1">NMC811, for Li-ion</tspan><tspan xml:space="preserve" dy="1em" x="1">battery</tspan><tspan xml:space="preserve" dy="1em" x="1">RoW</tspan><tspan xml:space="preserve" dy="1em" x="1">(0%)</tspan></text></g></g></g><g class="node production" id="8ed5dce88d25c5cfd32fbc81684a27ab" transform="translate(242.890625,799.5)" style="opacity: 1;"><rect rx="0" ry="0" x="-76.5" y="-47.5" width="153" height="95" style="fill: rgb(255, 255, 255);"/><g class="label" transform="translate(0,0)"><g transform="translate(-66.5,-37.5)"><text><tspan xml:space="preserve" dy="1em" x="1">cathode production,</tspan><tspan xml:space="preserve" dy="1em" x="1">NMC811, for Li-ion</tspan><tspan xml:space="preserve" dy="1em" x="1">battery</tspan><tspan xml:space="preserve" dy="1em" x="1">RoW</tspan><tspan xml:space="preserve" dy="1em" x="1">(0%)</tspan></text></g></g></g><g class="node market" id="bc62c5330286e6df8bfbcf7d03502b2c" transform="translate(242.890625,618.5)" style="opacity: 1;"><rect rx="0" ry="0" x="-74.859375" y="-40.5" width="149.71875" height="81" style="fill: rgb(255, 255, 255);"/><g class="label" transform="translate(0,0)"><g transform="translate(-64.859375,-30.5)"><text><tspan xml:space="preserve" dy="1em" x="1">market for NMC811</tspan><tspan xml:space="preserve" dy="1em" x="1">oxide</tspan><tspan xml:space="preserve" dy="1em" x="1">RoW</tspan><tspan xml:space="preserve" dy="1em" x="1">(0%)</tspan></text></g></g></g><g class="node production" id="980b17ccb891a38585bf05ad3185e9fa" transform="translate(170.1015625,430.5)" style="opacity: 1;"><rect rx="0" ry="0" x="-97.65625" y="-40.5" width="195.3125" height="81" style="fill: rgb(255, 255, 255);"/><g class="label" transform="translate(0,0)"><g transform="translate(-87.65625,-30.5)"><text><tspan xml:space="preserve" dy="1em" x="1">NMC811 oxide production,</tspan><tspan xml:space="preserve" dy="1em" x="1">for Li-ion battery</tspan><tspan xml:space="preserve" dy="1em" x="1">RoW</tspan><tspan xml:space="preserve" dy="1em" x="1">(0%)</tspan></text></g></g></g><g class="node market" id="464c6360725050e3227a12d9cfb2afeb" transform="translate(72.72265625,242.5)" style="opacity: 1;"><rect rx="0" ry="0" x="-69.8984375" y="-40.5" width="139.796875" height="81" style="fill: rgb(255, 255, 255);"/><g class="label" transform="translate(0,0)"><g transform="translate(-59.8984375,-30.5)"><text><tspan xml:space="preserve" dy="1em" x="1">market for lithium</tspan><tspan xml:space="preserve" dy="1em" x="1">hydroxide</tspan><tspan xml:space="preserve" dy="1em" x="1">GLO</tspan><tspan xml:space="preserve" dy="1em" x="1">(0%)</tspan></text></g></g></g><g class="node market" id="f81abe2a383b675a23d300859d4ee45e" transform="translate(267.48046875,242.5)" style="opacity: 1;"><rect rx="0" ry="0" x="-74.859375" y="-40.5" width="149.71875" height="81" style="fill: rgb(255, 255, 255);"/><g class="label" transform="translate(0,0)"><g transform="translate(-64.859375,-30.5)"><text><tspan xml:space="preserve" dy="1em" x="1">market for NMC811</tspan><tspan xml:space="preserve" dy="1em" x="1">hydroxide</tspan><tspan xml:space="preserve" dy="1em" x="1">RoW</tspan><tspan xml:space="preserve" dy="1em" x="1">(0%)</tspan></text></g></g></g><g class="node production" id="c9393ca3e722e156f115e76d554f70e3" transform="translate(194.69140625,47.5)" style="opacity: 1;"><rect rx="0" ry="0" x="-72.7890625" y="-47.5" width="145.578125" height="95" style="fill: rgb(255, 255, 255);"/><g class="label" transform="translate(0,0)"><g transform="translate(-62.7890625,-37.5)"><text><tspan xml:space="preserve" dy="1em" x="1">NMC811 hydroxide</tspan><tspan xml:space="preserve" dy="1em" x="1">production, for</tspan><tspan xml:space="preserve" dy="1em" x="1">Li-ion battery</tspan><tspan xml:space="preserve" dy="1em" x="1">RoW</tspan><tspan xml:space="preserve" dy="1em" x="1">(0%)</tspan></text></g></g></g></g></g></g></g></svg>