<svg width="295" height="47" viewBox="0 0 295 47" fill="none" xmlns="http://www.w3.org/2000/svg">
<path fill-rule="evenodd" clip-rule="evenodd" d="M117.551 4.49072C117.551 1.96197 119.543 0 122.145 0C124.747 0 126.724 1.94743 126.724 4.49072C126.724 7.03401 124.791 9.02505 122.145 9.02505C119.499 9.02505 117.551 7.01948 117.551 4.49072ZM118.577 44.4712V13.2106H125.698V44.4712H118.577ZM78.9273 23.6744L87.3716 15.4196C87.2809 15.393 87.1902 15.361 87.1029 15.3302C87.0471 15.3105 86.9927 15.2913 86.9405 15.2743L91.6532 10.6673C91.0734 10.6964 90.4936 10.7545 89.9138 10.8417L85.7214 14.94C85.5848 14.9036 85.4481 14.8773 85.3202 14.8527L85.2457 14.8383L78.3624 21.5671C78.3543 21.5035 78.3417 21.4443 78.3295 21.387C78.3195 21.3395 78.3097 21.2935 78.3029 21.2474L74.4822 24.9824C74.393 25.3748 74.3335 25.7526 74.2741 26.145C74.2295 26.4357 74.1997 26.7263 74.17 27.017C74.1403 27.2931 74.1254 27.5693 74.1105 27.8454C74.0957 28.1651 74.0808 28.4994 74.0808 28.8191L79.0611 23.9505C79.0438 23.8911 79.0214 23.8367 78.9998 23.7843L78.9997 23.7841C78.9843 23.7468 78.9694 23.7106 78.9571 23.6744H78.9273ZM78.1691 19.4598L83.0752 14.6639L85.9147 11.8881C85.5728 12.0189 85.2457 12.1497 84.9038 12.295C84.3537 12.5421 83.8185 12.8182 83.2833 13.1088C82.3467 13.6466 81.4547 14.257 80.6073 14.9545C80.2207 15.2743 79.8491 15.6085 79.4923 15.9573C79.1355 16.3061 78.7787 16.684 78.4665 17.0473C77.7529 17.8757 77.1136 18.7477 76.5784 19.6633C76.2662 20.1865 75.9837 20.7096 75.731 21.2474C75.5823 21.5671 75.4337 21.9014 75.3147 22.2356C75.2899 22.3034 75.2635 22.3713 75.2371 22.4391L75.237 22.4393C75.1842 22.5749 75.1313 22.7104 75.0917 22.846L78.1691 19.8377V19.4598ZM90.8802 16.9746L80.5329 27.0897C80.5552 27.1333 80.5775 27.1732 80.5998 27.2132L80.5999 27.2133C80.6222 27.2532 80.6445 27.2932 80.6667 27.3367L74.616 33.2517C74.5565 33.0046 74.4971 32.743 74.4376 32.4814L74.4184 32.3882L74.4184 32.3881L74.4184 32.388C74.3804 32.2045 74.3441 32.0286 74.3187 31.842C74.2787 31.6467 74.2507 31.4398 74.2239 31.2421L74.2146 31.1735C74.1849 30.8974 74.1551 30.6068 74.1254 30.3161L74.1254 30.316L79.4923 25.0696C79.5146 25.1132 79.5331 25.1568 79.5517 25.2003C79.5703 25.2439 79.5889 25.2876 79.6112 25.3312L89.0664 16.0881L89.4678 16.2625L95.0577 10.7981C95.5037 10.8562 95.9497 10.9289 96.3957 11.0161L90.5085 16.7712C90.568 16.8075 90.6311 16.8402 90.6943 16.8729C90.7575 16.9056 90.8207 16.9383 90.8802 16.9746ZM82.4953 30.1416L93.9873 18.9075C93.9278 18.8712 93.8721 18.8312 93.8163 18.7913L93.8163 18.7912C93.7605 18.7513 93.7048 18.7113 93.6454 18.675L100.231 12.2369C99.8596 12.077 99.5029 11.9317 99.1312 11.8009L92.7236 18.0646L92.3668 17.8466L81.3952 28.572C81.3729 28.5357 81.3469 28.4958 81.3209 28.4559L81.3209 28.4558C81.2949 28.4158 81.2688 28.3759 81.2465 28.3395L74.9579 34.4725C75.0126 34.6437 75.0754 34.8148 75.1403 34.9918C75.1636 35.0552 75.1871 35.1194 75.2107 35.1846C75.2478 35.2791 75.285 35.3699 75.3222 35.4607C75.3593 35.5516 75.3965 35.6424 75.4337 35.7369C75.4504 35.7761 75.4671 35.8161 75.484 35.8564C75.5422 35.9955 75.6024 36.1394 75.6715 36.2746L75.9837 36.9286L82.6589 30.4032C82.6292 30.3669 82.6031 30.3306 82.5771 30.2942C82.5511 30.2579 82.5251 30.2216 82.4953 30.1852V30.1416ZM96.812 21.102L84.7402 32.9029V32.932C84.7997 33.0046 84.9186 33.1354 84.9186 33.1354L77.9313 39.966C77.7826 39.7771 77.6488 39.6027 77.515 39.4137C77.4303 39.3103 77.3532 39.1995 77.2783 39.0918C77.2479 39.0482 77.2179 39.0051 77.1879 38.9632C77.1359 38.8834 77.084 38.8071 77.032 38.7309L77.0318 38.7307L77.0313 38.73C76.9795 38.6539 76.9276 38.5778 76.8757 38.4981C76.7419 38.2947 76.623 38.1058 76.5041 37.9023L83.313 31.2461L83.4914 31.4641L95.3253 19.8958C95.4442 19.9684 95.5483 20.0556 95.6523 20.1428L95.6524 20.1429L102.521 13.4286C102.848 13.6175 103.145 13.821 103.457 14.039L96.4998 20.8404L96.812 21.102ZM99.3988 23.5436L87.2244 35.4448C87.3004 35.5074 87.4162 35.6206 87.4162 35.6206L80.3843 42.4947C80.3321 42.4483 80.2783 42.4019 80.2241 42.3551C80.1083 42.2551 79.9901 42.153 79.8788 42.0442C79.8119 41.9788 79.745 41.917 79.6781 41.8553C79.6112 41.7935 79.5443 41.7318 79.4774 41.6664C79.4105 41.601 79.3473 41.5356 79.2841 41.4702C79.221 41.4048 79.1578 41.3394 79.0909 41.274C79.0464 41.2261 79.0005 41.1783 78.9542 41.13L78.9352 41.1102L78.9351 41.1102L78.9349 41.11C78.8325 41.0035 78.728 40.8948 78.63 40.7798L85.662 33.9057C85.7214 33.9784 85.8552 34.1091 85.8552 34.1091L98.0311 22.2066C98.0831 22.2502 98.1314 22.2974 98.1797 22.3446C98.228 22.3919 98.2764 22.4391 98.3284 22.4827L105.375 15.594C105.442 15.6594 105.509 15.7212 105.576 15.7829C105.643 15.8447 105.71 15.9065 105.777 15.9719L105.777 15.9721C105.911 16.1028 106.044 16.2335 106.163 16.3643L99.1163 23.2529C99.1609 23.3038 99.2092 23.351 99.2575 23.3982L99.2577 23.3984L99.2577 23.3985L99.2578 23.3985C99.306 23.4457 99.3543 23.4928 99.3988 23.5436ZM101.777 26.1886L89.9436 37.757H89.9733L90.1963 37.9314L83.3874 44.5875C83.1792 44.4712 82.9711 44.355 82.7778 44.2242C82.696 44.1733 82.618 44.1224 82.5399 44.0715C82.4619 44.0207 82.3838 43.9698 82.3021 43.919L82.2846 43.907L82.22 43.8624C82.1711 43.8285 82.1212 43.7937 82.0714 43.7589C81.9934 43.7045 81.9155 43.6501 81.8412 43.5993C81.6479 43.4685 81.4547 43.3377 81.2763 43.1923L88.2636 36.3618C88.338 36.4199 88.4718 36.5362 88.4718 36.5362L100.544 24.7353L100.811 25.0405L107.769 18.239C107.992 18.5442 108.2 18.8494 108.393 19.1546L101.525 25.8689L101.578 25.9385L101.578 25.9387C101.645 26.0269 101.707 26.1077 101.777 26.1886ZM92.9169 39.8207L103.889 29.0952L103.666 28.7464L110.073 22.4827C109.939 22.1194 109.791 21.756 109.627 21.4072L103.041 27.8454C103.004 27.7873 102.963 27.7328 102.922 27.6783C102.881 27.6238 102.84 27.5693 102.803 27.5111L91.3113 38.7452C91.2741 38.7161 91.237 38.6907 91.1998 38.6653C91.1627 38.6398 91.1255 38.6144 91.0883 38.5853L84.4132 45.1107L85.0822 45.4159C85.1542 45.4453 85.2263 45.477 85.2994 45.5092L85.2996 45.5093L85.3008 45.5098L85.3009 45.5099L85.301 45.5099L85.3011 45.5099L85.3012 45.51L85.3013 45.51L85.3014 45.5101L85.3016 45.5101C85.4086 45.5573 85.5178 45.6054 85.6322 45.6484C85.8103 45.721 86.0032 45.7935 86.1961 45.866L86.1962 45.8661L86.1963 45.8661L86.1964 45.8661L86.1965 45.8662L86.1966 45.8662L86.1967 45.8662L86.1968 45.8663L86.1972 45.8664C86.435 45.9536 86.6729 46.0408 86.9256 46.1135L93.2143 39.966L93.2016 39.9585L93.1779 39.9443L93.1542 39.9298L93.0953 39.8933C93.0544 39.8679 93.0135 39.8424 92.9764 39.8207H92.9169ZM105.673 32.3216L96.2173 41.5646L96.2025 41.5792C96.2471 41.601 96.2917 41.6191 96.3363 41.6373C96.3809 41.6555 96.4255 41.6736 96.4701 41.6954L91.1032 46.9419C90.8058 46.9273 90.5234 46.8983 90.226 46.8547C89.9882 46.8256 89.7652 46.7965 89.5422 46.7529C89.3512 46.728 89.1711 46.6925 88.9833 46.6554L88.888 46.6367C88.6353 46.5785 88.3677 46.5204 88.1001 46.4623L94.1509 40.5473C94.1954 40.5691 94.2363 40.5909 94.2772 40.6127C94.3003 40.625 94.3235 40.6374 94.3473 40.6497C94.3656 40.6592 94.3842 40.6686 94.4036 40.6781L104.766 30.5485C104.803 30.6067 104.836 30.6684 104.87 30.7302C104.903 30.792 104.937 30.8537 104.974 30.9119L110.861 25.1568C110.95 25.5928 111.025 26.0288 111.084 26.4647L105.494 31.9292L105.673 32.3216ZM106.49 34.3998C106.446 34.2545 106.401 34.1237 106.342 33.9784L97.8973 42.2331C97.8759 42.2262 97.8538 42.2184 97.8312 42.2102L97.7996 42.1986L97.7567 42.1825L97.7561 42.1823L97.7558 42.1822L97.7552 42.182C97.7282 42.1718 97.7013 42.1617 97.6749 42.1522C97.6544 42.1448 97.6342 42.1378 97.6148 42.1314L92.6344 47C92.9615 47 93.3034 47 93.6305 46.9709C93.9129 46.9709 94.1954 46.9419 94.4778 46.9128L94.4779 46.9128L94.4782 46.9128C94.7754 46.8837 95.0727 46.8547 95.3699 46.8111C95.7168 46.7608 96.0527 46.6997 96.3966 46.6372L96.5592 46.6076L100.38 42.8726C100.328 42.8653 100.272 42.8545 100.217 42.8436L100.216 42.8435C100.161 42.8326 100.105 42.8217 100.053 42.8145L106.936 36.0857C106.906 35.9258 106.877 35.7805 106.832 35.6206L111.025 31.5223C111.114 30.9555 111.173 30.3887 111.203 29.8219L106.49 34.4289V34.3998ZM101.822 42.9889H102.209H102.223L107.144 38.1784L109.984 35.4026C109.865 35.7369 109.716 36.0711 109.568 36.3908C109.33 36.9286 109.047 37.4518 108.735 37.9749C108.2 38.8905 107.561 39.7625 106.847 40.5909C106.52 40.9688 106.178 41.3466 105.806 41.6954C105.435 42.0588 105.063 42.393 104.676 42.7127C103.829 43.4103 102.937 44.0352 102 44.5584C101.465 44.8491 100.93 45.1252 100.38 45.3723C100.038 45.5176 99.711 45.6484 99.3691 45.7792L98.7447 45.9972L101.822 42.9889ZM0 28.9644C0 18.646 6.94275 12.2659 15.8628 12.2659C24.7828 12.2659 30.9376 18.457 31.1309 28.6011V30.2579H7.12115C7.61175 35.7369 11.1054 39.4573 16.5318 39.4573C20.2187 39.4573 22.9839 37.6843 24.0692 34.5597H31.0119C29.3766 41.2885 24.0097 45.3578 16.4723 45.3578C6.69002 45.3578 0 38.5127 0 28.9644ZM23.7719 25.3602C22.865 20.8695 20.0255 18.1664 15.8628 18.1664C11.7001 18.1664 8.50376 20.884 7.41849 25.3602H23.7719ZM52.643 12.2659C43.3513 12.2659 36.2896 18.3408 36.2896 28.6011H36.3045C36.3045 38.0476 42.3998 45.3578 52.8363 45.3578C61.34 45.3578 67.0637 40.2857 67.9111 32.2053H60.9089C60.1804 36.6815 57.1625 39.3992 52.8214 39.3992C47.514 39.3992 43.5297 35.4462 43.5297 28.6011C43.5297 22.2356 47.1572 18.2245 52.5835 18.2245C57.103 18.2245 60.2399 21.0003 60.9089 25.3021H67.9111C67.3016 17.5124 61.3846 12.2659 52.643 12.2659ZM134.068 13.2106V44.4712H141.189V25.5346C141.263 21.4654 144.4 18.3408 149.039 18.3408C153.023 18.3408 155.372 20.637 155.372 24.1104V44.4567H162.493V23.7616C162.493 16.7566 158.033 12.2659 151.209 12.2659C146.452 12.2659 142.408 14.5767 140.416 17.8176L139.807 13.2106H134.068ZM179.664 44.4712L166.329 13.2106H174.045L183.396 36.2746L192.687 13.2106H200.403L187.068 44.4712H179.664ZM218.6 12.2659C209.68 12.2659 202.737 18.646 202.737 28.9644C202.737 38.5127 209.427 45.3578 219.21 45.3578C226.747 45.3578 232.129 41.2885 233.749 34.5597H226.806C225.721 37.6843 222.956 39.4573 219.269 39.4573C213.843 39.4573 210.334 35.7369 209.858 30.2579H233.868V28.6011C233.69 18.457 227.52 12.2659 218.6 12.2659ZM218.6 18.1664C222.763 18.1664 225.602 20.8695 226.509 25.3602H210.156C211.241 20.884 214.437 18.1664 218.6 18.1664ZM240.811 44.4712V13.2106H246.549L247.159 17.8176C249.151 14.5767 253.195 12.2659 257.952 12.2659C264.776 12.2659 269.236 16.7566 269.236 23.7616V44.4567H262.115V24.1104C262.115 20.637 259.766 18.3408 255.782 18.3408C251.143 18.3408 247.992 21.4654 247.932 25.5346V44.4712H240.811ZM279.613 34.923C279.613 41.1141 283.345 44.4712 290.287 44.4712H290.302H294.405V38.5708H290.778C288.117 38.5708 286.734 37.103 286.734 34.4434V19.111H295V13.2106H286.734V2.52876H279.613V13.2106H274.008V19.111H279.613V34.923Z" fill="#1D1D1B"/>
</svg>
